<svg width="166" height="56" viewBox="0 0 166 56" fill="none" xmlns="http://www.w3.org/2000/svg">
<path fill-rule="evenodd" clip-rule="evenodd" d="M72.5424 13.8774C84.1005 13.8774 93.4739 23.3823 93.4739 35.1022C93.4739 42.314 89.9238 48.6859 84.5003 52.5216H60.5845C55.161 48.6858 51.6108 42.314 51.6108 35.1022C51.6108 23.3823 60.9842 13.8774 72.5424 13.8774H72.5424Z" fill="#F8C300" stroke="#F8C300" stroke-width="0.0362721"/>
<path fill-rule="evenodd" clip-rule="evenodd" d="M50.5178 26.4138C56.3358 28.083 55.2817 25.1937 54.3628 22.3942C52.9487 16.011 55.5347 12.9513 57.3867 11.1883C55.3746 14.2766 55.9486 18.3458 57.6041 22.7256C60.0237 29.127 64.4547 36.2471 64.0313 42.3909C63.7786 46.0585 62.9763 49.5602 60.5324 52.7487C60.2326 52.7366 59.9328 52.7244 59.6331 52.7123C60.827 51.0235 61.7726 46.7033 60.58 42.1398C58.3358 33.5524 50.4404 24.0268 35.8818 29.0151C42.4857 23.9176 48.6039 26.1802 50.5177 26.4138L50.5178 26.4138Z" fill="#84C225" stroke="#84C225" stroke-width="0.0362721"/>
<path d="M50.9347 25.3351C52.5523 25.3351 53.8636 23.9999 53.8636 22.3529C53.8636 20.7059 52.5523 19.3707 50.9347 19.3707C49.3172 19.3707 48.0059 20.7059 48.0059 22.3529C48.0059 23.9999 49.3172 25.3351 50.9347 25.3351Z" fill="#84C225" stroke="#84C225" stroke-width="0.0362721"/>
<path fill-rule="evenodd" clip-rule="evenodd" d="M72.1028 15.1374C78.1544 21.1533 78.8162 16.8683 79.5839 12.7858C82.1758 3.94045 87.4495 1.91893 90.9353 1C86.3509 3.44699 84.2942 8.86318 83.3622 15.3982C82 24.9495 82.6338 36.7554 77.9351 44.0563C75.8233 47.3377 73.3905 50.2911 70.1039 52.5222H67.3607C69.7724 50.4245 72.5671 46.4507 73.8428 41.4003C76.9074 29.2682 73.6296 12.1364 52.2571 8.40302C63.8784 6.59522 69.8976 13.5482 72.1027 15.1374H72.1028Z" fill="#007CC3" stroke="#007CC3" stroke-width="0.0362721"/>
<path fill-rule="evenodd" clip-rule="evenodd" d="M60.3789 19.9197C66.3682 23.763 66.1561 20.1533 66.066 16.6901C66.6276 9.02369 70.5727 6.45042 73.2535 5.08974C69.9451 7.88898 69.2182 12.6657 69.6047 18.1574C70.1695 26.1836 72.7571 35.698 70.2069 42.4748C68.6845 46.5202 66.5992 50.1933 62.7706 52.9596C62.4371 52.8448 62.1036 52.73 61.7701 52.6152C63.6846 51.1159 66.2076 46.5695 66.4045 41.0272C66.775 30.5981 61.0974 17.2052 43.0171 17.9102C52.1751 14.3978 58.3023 19.0108 60.3788 19.9198L60.3789 19.9197Z" fill="#DB214C" stroke="#DB214C" stroke-width="0.0362721"/>
<path d="M74.922 14.8476C77.2113 14.8476 79.0672 12.958 79.0672 10.627C79.0672 8.29598 77.2113 6.40633 74.922 6.40633C72.6327 6.40633 70.7769 8.29598 70.7769 10.627C70.7769 12.958 72.6327 14.8476 74.922 14.8476Z" fill="#007CC3" stroke="#007CC3" stroke-width="0.0362721"/>
<path d="M86.4246 27.1242C88.2452 27.1242 89.7211 25.6215 89.7211 23.7678C89.7211 21.914 88.2452 20.4113 86.4246 20.4113C84.6041 20.4113 83.1282 21.914 83.1282 23.7678C83.1282 25.6215 84.6041 27.1242 86.4246 27.1242Z" fill="#901E78" stroke="#901E78" stroke-width="0.0362721"/>
<path d="M61.871 19.2193C63.6791 19.2193 65.145 17.7267 65.145 15.8856C65.145 14.0445 63.6791 12.552 61.871 12.552C60.0628 12.552 58.5969 14.0445 58.5969 15.8856C58.5969 17.7267 60.0628 19.2193 61.871 19.2193Z" fill="#DB214C" stroke="#DB214C" stroke-width="0.0362721"/>
<path fill-rule="evenodd" clip-rule="evenodd" d="M82.9234 26.428C86.6227 32.7129 88.0987 29.3134 89.6183 26.1046C93.6778 19.3532 98.4765 18.8246 101.557 18.8207C97.2366 19.85 94.3623 23.8823 92.1758 29.0831C88.9798 36.6845 86.9454 46.5828 81.4783 51.6008C81.1359 51.915 80.7898 52.2225 80.439 52.5223H75.7801C76.8305 51.3843 77.8289 50.0449 78.6705 48.5181C83.8334 39.1517 84.8361 24.2775 67.9749 16.5592C77.9747 17.5827 81.4444 24.6357 82.9234 26.428L82.9234 26.428Z" fill="#901E78" stroke="#901E78" stroke-width="0.0362721"/>
<path fill-rule="evenodd" clip-rule="evenodd" d="M70.4788 49.0558C83.2887 49.0558 93.8669 51.7205 95.4508 55.1673C88.4329 53.768 79.8063 52.9424 70.4788 52.9424C61.1514 52.9424 52.5249 53.768 45.5068 55.1673C47.0908 51.7205 57.669 49.0558 70.4788 49.0558Z" fill="#0093DD" stroke="#0093DD" stroke-width="0.0362721"/>
<path d="M0.670398 48.0822C1.22906 47.9257 1.6313 47.7805 1.87711 47.6464C2.12293 47.49 2.29053 47.2889 2.37991 47.043C2.4693 46.7972 2.51399 46.4173 2.51399 45.9034V37.4228C2.51399 36.529 2.44695 35.8251 2.31287 35.3111C2.17879 34.7971 1.92181 34.2831 1.54191 33.7692L1.27376 33.4005L1.54191 33.0317H8.58109C9.81015 33.0317 10.637 32.8865 11.0616 32.596L11.4638 32.2943L11.799 32.596V36.786L11.1286 37.0206C10.7264 35.8139 10.3241 34.9871 9.92189 34.5401C9.54199 34.0932 8.98333 33.8697 8.24589 33.8697H7.13974C6.55872 33.8697 6.17883 33.9815 6.00006 34.2049C5.82129 34.4061 5.7319 34.853 5.7319 35.5457V40.5737H8.11181C8.98333 40.5737 9.55317 40.2385 9.82133 39.5681L9.98893 39.0988L10.4247 39.3335V43.0877L9.68725 43.3559L9.55317 42.6519C9.46378 42.1603 9.26266 41.8363 8.94981 41.6799C8.63696 41.5011 8.04477 41.4117 7.17326 41.4117H5.7319V44.2944C5.7319 45.1659 5.79894 45.8698 5.93302 46.4062C6.08945 46.9201 6.3576 47.4341 6.7375 47.9481L7.00566 48.3503L6.7375 48.6855H0.905037L0.670398 48.0822ZM13.3441 48.0822C13.858 47.9481 14.2267 47.814 14.4502 47.6799C14.696 47.5235 14.8525 47.3224 14.9195 47.0766C15.0089 46.8084 15.0536 46.4173 15.0536 45.9034V37.1882C15.0536 36.1156 14.9642 35.367 14.7854 34.9424C14.629 34.4954 14.2267 34.0038 13.5787 33.4675L13.8804 33.0317H19.5452L19.7799 33.5681C19.1318 33.9479 18.7184 34.3055 18.5396 34.6407C18.3609 34.9535 18.2715 35.5234 18.2715 36.3502V44.5961C18.2715 45.6464 18.3497 46.395 18.5061 46.8419C18.6849 47.2665 19.0871 47.747 19.7128 48.2833L19.4447 48.6855H13.5787L13.3441 48.0822ZM21.7895 48.0822C22.3035 47.9481 22.6722 47.814 22.8957 47.6799C23.1415 47.5235 23.2979 47.3224 23.3649 47.0766C23.4543 46.8084 23.499 46.4173 23.499 45.9034V37.1882C23.499 36.1156 23.4096 35.367 23.2309 34.9424C23.0744 34.4954 22.6722 34.0038 22.0241 33.4675L22.3258 33.0317H27.9907L28.2253 33.5681C27.5773 33.9479 27.1639 34.3055 26.9851 34.6407C26.8063 34.9535 26.7169 35.5234 26.7169 36.3502V44.5961C26.7169 45.6464 26.7951 46.395 26.9516 46.8419C27.1303 47.2665 27.5326 47.747 28.1583 48.2833L27.8901 48.6855H22.0241L21.7895 48.0822ZM30.2014 48.0822C30.7601 47.9257 31.1623 47.7805 31.4081 47.6464C31.6539 47.49 31.8215 47.2889 31.9109 47.043C32.0003 46.7972 32.045 46.4173 32.045 45.9034V36.8195C32.045 36.0374 31.978 35.4675 31.8439 35.11C31.7322 34.7524 31.4528 34.4396 31.0059 34.1714L30.6037 33.9368L30.7377 33.501C31.4752 33.2775 32.3914 33.0988 33.4864 32.9647C34.5813 32.8083 35.5869 32.7301 36.5032 32.7301C39.3412 32.7301 41.4976 33.434 42.9725 34.8418C44.4697 36.2273 45.2183 38.2385 45.2183 40.8754C45.2183 43.2665 44.5256 45.1659 43.1401 46.5738C41.7769 47.9816 39.911 48.6855 37.5423 48.6855H30.4361L30.2014 48.0822ZM37.2406 48.0151C40.2574 48.0151 41.7658 45.6352 41.7658 40.8754C41.7658 38.6854 41.33 36.9312 40.4585 35.6128C39.6093 34.272 38.4808 33.6016 37.073 33.6016C36.492 33.6016 36.045 33.691 35.7322 33.8697C35.4193 34.0485 35.2629 34.3055 35.2629 34.6407V44.8978C35.2629 45.9481 35.4193 46.7302 35.7322 47.2442C36.0674 47.7581 36.5702 48.0151 37.2406 48.0151Z" fill="#0093DD"/>
<path d="M99.4436 48.0822C99.9576 47.9481 100.326 47.814 100.55 47.6799C100.796 47.5235 100.952 47.3224 101.019 47.0766C101.108 46.8084 101.153 46.4173 101.153 45.9034V37.1882C101.153 36.1156 101.064 35.367 100.885 34.9424C100.729 34.4954 100.326 34.0038 99.6783 33.4675L99.9799 33.0317H105.645L105.879 33.5681C105.231 33.9479 104.818 34.3055 104.639 34.6407C104.46 34.9535 104.371 35.5234 104.371 36.3502V44.5961C104.371 45.6464 104.449 46.395 104.606 46.8419C104.784 47.2665 105.187 47.747 105.812 48.2833L105.544 48.6855H99.6783L99.4436 48.0822ZM122.034 33.7692C121.677 34.2831 121.42 34.8083 121.263 35.3446C121.129 35.8809 121.062 36.5737 121.062 37.4228V46.7749C121.062 47.2442 121.163 47.6352 121.364 47.9481L121.666 48.3503L121.364 48.6855H117.878L110.437 35.8474V44.2944C110.437 45.1883 110.504 45.9034 110.638 46.4397C110.794 46.9537 111.051 47.4565 111.409 47.9481L111.71 48.3503L111.409 48.6855H107.721L107.487 48.0822C108.068 47.9257 108.47 47.7805 108.694 47.6464C108.939 47.5123 109.107 47.3224 109.196 47.0766C109.286 46.8308 109.33 46.4397 109.33 45.9034V37.0541C109.33 36.0709 109.241 35.3558 109.062 34.9088C108.883 34.4619 108.492 33.9815 107.889 33.4675L108.157 33.0317H112.515L119.99 45.9704V35.8139C119.99 35.1435 119.844 34.6742 119.554 34.406C119.286 34.1379 118.716 33.8809 117.844 33.6351L118.046 33.0317H122.034L122.336 33.4005L122.034 33.7692ZM124.288 48.0822C124.847 47.9257 125.249 47.7805 125.495 47.6464C125.741 47.49 125.908 47.2889 125.998 47.043C126.087 46.7972 126.132 46.4173 126.132 45.9034V36.8195C126.132 36.0374 126.065 35.4675 125.931 35.11C125.819 34.7524 125.54 34.4396 125.093 34.1714L124.69 33.9368L124.824 33.501C125.562 33.2775 126.478 33.0988 127.573 32.9647C128.668 32.8083 129.674 32.7301 130.59 32.7301C133.428 32.7301 135.584 33.434 137.059 34.8418C138.556 36.2273 139.305 38.2385 139.305 40.8754C139.305 43.2665 138.612 45.1659 137.227 46.5738C135.864 47.9816 133.998 48.6855 131.629 48.6855H124.523L124.288 48.0822ZM131.327 48.0151C134.344 48.0151 135.852 45.6352 135.852 40.8754C135.852 38.6854 135.417 36.9312 134.545 35.6128C133.696 34.272 132.568 33.6016 131.16 33.6016C130.579 33.6016 130.132 33.691 129.819 33.8697C129.506 34.0485 129.35 34.3055 129.35 34.6407V44.8978C129.35 45.9481 129.506 46.7302 129.819 47.2442C130.154 47.7581 130.657 48.0151 131.327 48.0151ZM140.918 48.0822C141.432 47.9481 141.801 47.814 142.024 47.6799C142.27 47.5235 142.426 47.3224 142.493 47.0766C142.583 46.8084 142.627 46.4173 142.627 45.9034V37.1882C142.627 36.1156 142.538 35.367 142.359 34.9424C142.203 34.4954 141.801 34.0038 141.153 33.4675L141.454 33.0317H147.119L147.354 33.5681C146.706 33.9479 146.292 34.3055 146.114 34.6407C145.935 34.9535 145.845 35.5234 145.845 36.3502V44.5961C145.845 45.6464 145.924 46.395 146.08 46.8419C146.259 47.2665 146.661 47.747 147.287 48.2833L147.019 48.6855H141.153L140.918 48.0822ZM162.168 45.6687C162.391 46.2944 162.637 46.7972 162.905 47.1771C163.174 47.5347 163.587 47.9257 164.146 48.3503L163.844 48.6855H157.777L157.576 48.0822L158.079 47.9481C158.414 47.8363 158.648 47.7023 158.782 47.5458C158.939 47.3671 159.017 47.1324 159.017 46.8419C159.017 46.6632 158.894 46.205 158.648 45.4676L157.978 43.4899H152.782L152.514 44.3279C152.179 45.3335 152.011 46.0933 152.011 46.6073C152.011 47.0989 152.101 47.5458 152.28 47.9481L152.514 48.3503L152.213 48.6855H148.525L148.291 48.0822L148.794 47.9481C149.33 47.7917 149.732 47.5794 150 47.3112C150.268 47.0207 150.525 46.5179 150.771 45.8028L154.19 35.948C154.347 35.3893 154.425 34.9982 154.425 34.7748C154.425 34.2831 154.067 33.9368 153.352 33.7357L152.984 33.6351L153.218 33.0317H157.777L162.168 45.6687ZM157.643 42.5514L155.363 35.7468L153.118 42.5514H157.643Z" fill="#007CC3"/>
</svg>
