<svg width="67" height="56" viewBox="0 0 67 56" fill="none" xmlns="http://www.w3.org/2000/svg">
<path fill-rule="evenodd" clip-rule="evenodd" d="M37.6605 13.8774C49.2187 13.8774 58.5921 23.3823 58.5921 35.1022C58.5921 42.314 55.0419 48.6859 49.6185 52.5216H25.7026C20.2792 48.6858 16.729 42.314 16.729 35.1022C16.729 23.3823 26.1024 13.8774 37.6605 13.8774H37.6605Z" fill="#F8C300" stroke="#F8C300" stroke-width="0.0362721"/>
<path fill-rule="evenodd" clip-rule="evenodd" d="M15.636 26.4138C21.4539 28.083 20.3998 25.1937 19.4809 22.3942C18.0669 16.011 20.6529 12.9513 22.5049 11.1883C20.4928 14.2766 21.0667 18.3458 22.7222 22.7257C25.1419 29.1271 29.5728 36.2472 29.1495 42.3909C28.8967 46.0585 28.0945 49.5602 25.6506 52.7487C25.3508 52.7366 25.051 52.7245 24.7512 52.7123C25.9451 51.0235 26.8907 46.7033 25.6981 42.1398C23.4539 33.5524 15.5586 24.0268 1 29.0151C7.60385 23.9176 13.7221 26.1802 15.6359 26.4138L15.636 26.4138Z" fill="#84C225" stroke="#84C225" stroke-width="0.0362721"/>
<path d="M16.0529 25.3351C17.6705 25.3351 18.9818 23.9999 18.9818 22.3529C18.9818 20.7059 17.6705 19.3707 16.0529 19.3707C14.4353 19.3707 13.124 20.7059 13.124 22.3529C13.124 23.9999 14.4353 25.3351 16.0529 25.3351Z" fill="#84C225" stroke="#84C225" stroke-width="0.0362721"/>
<path fill-rule="evenodd" clip-rule="evenodd" d="M37.2212 15.1374C43.2729 21.1533 43.9346 16.8683 44.7024 12.7858C47.2942 3.94045 52.5679 1.91893 56.0537 1C51.4693 3.44699 49.4126 8.86318 48.4806 15.3982C47.1184 24.9495 47.7522 36.7554 43.0536 44.0563C40.9417 47.3377 38.5089 50.2911 35.2223 52.5222H32.4791C34.8908 50.4245 37.6855 46.4507 38.9612 41.4003C42.0258 29.2682 38.748 12.1364 17.3755 8.40302C28.9968 6.59522 35.016 13.5482 37.2211 15.1374H37.2212Z" fill="#007CC3" stroke="#007CC3" stroke-width="0.0362721"/>
<path fill-rule="evenodd" clip-rule="evenodd" d="M25.4971 19.9197C31.4864 23.763 31.2743 20.1533 31.1841 16.6901C31.7457 9.0237 35.6909 6.45043 38.3717 5.08975C35.0632 7.88899 34.3364 12.6657 34.7228 18.1574C35.2876 26.1836 37.8753 35.698 35.3251 42.4748C33.8027 46.5202 31.7174 50.1933 27.8888 52.9596C27.5553 52.8448 27.2217 52.73 26.8882 52.6152C28.8028 51.1159 31.3258 46.5695 31.5226 41.0272C31.8932 30.5981 26.2156 17.2052 8.13525 17.9103C17.2932 14.3978 23.4204 19.0108 25.497 19.9198L25.4971 19.9197Z" fill="#DB214C" stroke="#DB214C" stroke-width="0.0362721"/>
<path d="M40.0402 14.8476C42.3295 14.8476 44.1853 12.958 44.1853 10.627C44.1853 8.29599 42.3295 6.40634 40.0402 6.40634C37.7509 6.40634 35.895 8.29599 35.895 10.627C35.895 12.958 37.7509 14.8476 40.0402 14.8476Z" fill="#007CC3" stroke="#007CC3" stroke-width="0.0362721"/>
<path d="M51.5426 27.1242C53.3631 27.1242 54.839 25.6215 54.839 23.7678C54.839 21.914 53.3631 20.4113 51.5426 20.4113C49.722 20.4113 48.2461 21.914 48.2461 23.7678C48.2461 25.6215 49.722 27.1242 51.5426 27.1242Z" fill="#901E78" stroke="#901E78" stroke-width="0.0362721"/>
<path d="M26.9894 19.2193C28.7976 19.2193 30.2634 17.7267 30.2634 15.8856C30.2634 14.0445 28.7976 12.552 26.9894 12.552C25.1812 12.552 23.7153 14.0445 23.7153 15.8856C23.7153 17.7267 25.1812 19.2193 26.9894 19.2193Z" fill="#DB214C" stroke="#DB214C" stroke-width="0.0362721"/>
<path fill-rule="evenodd" clip-rule="evenodd" d="M48.0413 26.428C51.7407 32.7129 53.2166 29.3134 54.7362 26.1046C58.7958 19.3532 63.5944 18.8246 66.6751 18.8207C62.3546 19.85 59.4803 23.8823 57.2938 29.0831C54.0977 36.6845 52.0633 46.5828 46.5962 51.6008C46.2539 51.915 45.9078 52.2225 45.5569 52.5223H40.898C41.9484 51.3843 42.9468 50.0449 43.7885 48.5181C48.9513 39.1517 49.954 24.2775 33.0928 16.5592C43.0926 17.5827 46.5623 24.6357 48.0413 26.428L48.0413 26.428Z" fill="#901E78" stroke="#901E78" stroke-width="0.0362721"/>
<path fill-rule="evenodd" clip-rule="evenodd" d="M35.597 49.0558C48.4068 49.0558 58.9851 51.7206 60.569 55.1673C53.5511 53.768 44.9245 52.9424 35.597 52.9424C26.2696 52.9424 17.643 53.768 10.625 55.1673C12.2089 51.7206 22.7871 49.0558 35.597 49.0558Z" fill="#0093DD" stroke="#0093DD" stroke-width="0.0362721"/>
</svg>
