<svg width="912" height="299" viewBox="0 0 912 299" fill="none" xmlns="http://www.w3.org/2000/svg">
<path fill-rule="evenodd" clip-rule="evenodd" d="M398.275 71.6998C461.731 71.6998 513.193 123.884 513.193 188.229C513.193 227.823 493.702 262.807 463.926 283.866H332.623C302.847 262.806 283.355 227.824 283.355 188.229C283.355 123.884 334.817 71.6998 398.274 71.6998H398.275Z" fill="#F8C300" stroke="#F8C300" stroke-width="0.199142"/>
<path fill-rule="evenodd" clip-rule="evenodd" d="M277.355 140.528C309.297 149.692 303.51 133.829 298.465 118.459C290.701 83.4139 304.899 66.6157 315.067 56.9361C304.02 73.8917 307.171 96.2324 316.26 120.279C329.544 155.424 353.872 194.515 351.547 228.246C350.16 248.382 345.755 267.607 332.337 285.112C330.691 285.046 329.046 284.979 327.4 284.913C333.955 275.641 339.146 251.922 332.599 226.867C320.277 179.72 276.93 127.423 197 154.809C233.257 126.823 266.847 139.245 277.355 140.528L277.355 140.528Z" fill="#84C225" stroke="#84C225" stroke-width="0.199142"/>
<path d="M279.643 134.605C288.524 134.605 295.723 127.275 295.723 118.232C295.723 109.19 288.524 101.859 279.643 101.859C270.762 101.859 263.563 109.19 263.563 118.232C263.563 127.275 270.762 134.605 279.643 134.605Z" fill="#84C225" stroke="#84C225" stroke-width="0.199142"/>
<path fill-rule="evenodd" clip-rule="evenodd" d="M395.862 78.6178C429.087 111.646 432.72 88.1205 436.935 65.7068C451.165 17.1438 480.119 6.04513 499.257 1C474.088 14.4345 462.795 44.1707 457.679 80.0495C450.2 132.488 453.679 197.306 427.883 237.389C416.288 255.405 402.932 271.619 384.888 283.869H369.827C383.068 272.352 398.411 250.535 405.415 222.807C422.241 156.199 404.245 62.1413 286.904 41.6443C350.708 31.7191 383.755 69.8924 395.862 78.6178H395.862Z" fill="#007CC3" stroke="#007CC3" stroke-width="0.199142"/>
<path fill-rule="evenodd" clip-rule="evenodd" d="M331.495 104.874C364.378 125.974 363.213 106.156 362.718 87.1424C365.801 45.052 387.461 30.9242 402.18 23.4537C384.015 38.8222 380.025 65.0473 382.146 95.198C385.247 139.264 399.454 191.5 385.453 228.706C377.094 250.917 365.646 271.083 344.626 286.271C342.795 285.64 340.964 285.01 339.133 284.38C349.644 276.148 363.496 251.187 364.577 220.759C366.611 163.5 335.44 89.9706 236.174 93.8413C286.454 74.5572 320.093 99.8838 331.494 104.874L331.495 104.874Z" fill="#DB214C" stroke="#DB214C" stroke-width="0.199142"/>
<path d="M411.339 77.0268C423.908 77.0268 434.097 66.6521 434.097 53.8544C434.097 41.0566 423.908 30.682 411.339 30.682C398.771 30.682 388.582 41.0566 388.582 53.8544C388.582 66.6521 398.771 77.0268 411.339 77.0268Z" fill="#007CC3" stroke="#007CC3" stroke-width="0.199142"/>
<path d="M474.491 144.428C484.486 144.428 492.589 136.178 492.589 126C492.589 115.823 484.486 107.572 474.491 107.572C464.495 107.572 456.393 115.823 456.393 126C456.393 136.178 464.495 144.428 474.491 144.428Z" fill="#901E78" stroke="#901E78" stroke-width="0.199142"/>
<path d="M339.686 101.028C349.614 101.028 357.661 92.8338 357.661 82.7256C357.661 72.6174 349.614 64.4231 339.686 64.4231C329.759 64.4231 321.711 72.6174 321.711 82.7256C321.711 92.8338 329.759 101.028 339.686 101.028Z" fill="#DB214C" stroke="#DB214C" stroke-width="0.199142"/>
<path fill-rule="evenodd" clip-rule="evenodd" d="M455.269 140.606C475.579 175.111 483.682 156.447 492.025 138.83C514.313 101.763 540.659 98.8611 557.573 98.8399C533.852 104.491 518.071 126.629 506.067 155.183C488.52 196.917 477.35 251.26 447.335 278.81C445.455 280.536 443.555 282.224 441.629 283.87H416.05C421.817 277.622 427.299 270.268 431.92 261.886C460.265 210.462 465.77 128.799 373.198 86.4236C428.099 92.0429 447.148 130.766 455.269 140.606L455.269 140.606Z" fill="#901E78" stroke="#901E78" stroke-width="0.199142"/>
<path fill-rule="evenodd" clip-rule="evenodd" d="M386.946 264.838C457.275 264.838 515.352 279.468 524.048 298.391C485.518 290.709 438.156 286.176 386.946 286.176C335.736 286.176 288.374 290.708 249.844 298.391C258.54 279.468 316.617 264.838 386.946 264.838Z" fill="#0093DD" stroke="#0093DD" stroke-width="0.199142"/>
<path d="M3.68064 258.687C6.74784 257.829 8.95623 257.031 10.3058 256.295C11.6554 255.436 12.5755 254.332 13.0663 252.982C13.557 251.633 13.8024 249.547 13.8024 246.725V200.165C13.8024 195.258 13.4343 191.393 12.6982 188.571C11.9621 185.749 10.5512 182.928 8.46548 180.106L6.99322 178.081L8.46548 176.057H47.1122C53.8601 176.057 58.3995 175.26 60.7306 173.665L62.939 172.008L64.7793 173.665V196.669L61.0986 197.957C58.8903 191.332 56.6819 186.792 54.4735 184.338C52.3878 181.885 49.3206 180.658 45.2719 180.658H39.1988C36.0089 180.658 33.9232 181.271 32.9417 182.498C31.9602 183.602 31.4695 186.056 31.4695 189.859V217.464H44.5358C49.3206 217.464 52.4491 215.624 53.9214 211.943L54.8416 209.367L57.234 210.655V231.267L53.1853 232.739L52.4491 228.874C51.9584 226.175 50.8542 224.396 49.1366 223.537C47.4189 222.556 44.1677 222.065 39.3829 222.065H31.4695V237.892C31.4695 242.677 31.8375 246.541 32.5737 249.486C33.4325 252.308 34.9047 255.129 36.9904 257.951L38.4627 260.16L36.9904 262H4.96887L3.68064 258.687ZM73.262 258.687C76.0838 257.951 78.1082 257.215 79.3351 256.479C80.6846 255.62 81.5435 254.516 81.9115 253.166C82.4023 251.694 82.6476 249.547 82.6476 246.725V198.877C82.6476 192.988 82.1569 188.878 81.1754 186.547C80.3166 184.093 78.1082 181.394 74.5502 178.449L76.2065 176.057H107.308L108.596 179.002C105.038 181.087 102.768 183.05 101.787 184.891C100.805 186.608 100.315 189.737 100.315 194.276V239.548C100.315 245.314 100.744 249.424 101.603 251.878C102.584 254.209 104.793 256.847 108.228 259.792L106.756 262H74.5502L73.262 258.687ZM119.629 258.687C122.451 257.951 124.476 257.215 125.703 256.479C127.052 255.62 127.911 254.516 128.279 253.166C128.77 251.694 129.015 249.547 129.015 246.725V198.877C129.015 192.988 128.524 188.878 127.543 186.547C126.684 184.093 124.476 181.394 120.918 178.449L122.574 176.057H153.675L154.964 179.002C151.406 181.087 149.136 183.05 148.154 184.891C147.173 186.608 146.682 189.737 146.682 194.276V239.548C146.682 245.314 147.112 249.424 147.97 251.878C148.952 254.209 151.16 256.847 154.596 259.792L153.123 262H120.918L119.629 258.687ZM165.813 258.687C168.88 257.829 171.088 257.031 172.438 256.295C173.788 255.436 174.708 254.332 175.199 252.982C175.689 251.633 175.935 249.547 175.935 246.725V196.853C175.935 192.559 175.567 189.43 174.83 187.467C174.217 185.504 172.683 183.786 170.23 182.314L168.021 181.026L168.757 178.633C172.806 177.407 177.836 176.425 183.848 175.689C189.86 174.83 195.381 174.401 200.411 174.401C215.992 174.401 227.832 178.265 235.929 185.995C244.149 193.601 248.259 204.643 248.259 219.121C248.259 232.248 244.456 242.677 236.849 250.406C229.365 258.135 219.121 262 206.116 262H167.101L165.813 258.687ZM204.46 258.319C221.023 258.319 229.304 245.253 229.304 219.121C229.304 207.097 226.912 197.466 222.127 190.227C217.465 182.866 211.269 179.186 203.539 179.186C200.35 179.186 197.896 179.676 196.178 180.658C194.461 181.639 193.602 183.05 193.602 184.891V241.204C193.602 246.971 194.461 251.265 196.178 254.087C198.018 256.908 200.779 258.319 204.46 258.319Z" fill="#0093DD"/>
<path d="M545.969 258.687C548.791 257.951 550.815 257.215 552.042 256.479C553.391 255.62 554.25 254.516 554.618 253.166C555.109 251.694 555.355 249.547 555.355 246.725V198.877C555.355 192.988 554.864 188.878 553.882 186.547C553.023 184.093 550.815 181.394 547.257 178.449L548.913 176.057H580.015L581.303 179.002C577.745 181.087 575.475 183.05 574.494 184.891C573.512 186.608 573.022 189.737 573.022 194.276V239.548C573.022 245.314 573.451 249.424 574.31 251.878C575.291 254.209 577.5 256.847 580.935 259.792L579.463 262H547.257L545.969 258.687ZM669.998 180.106C668.035 182.928 666.624 185.811 665.765 188.755C665.029 191.7 664.661 195.503 664.661 200.165V251.51C664.661 254.087 665.213 256.234 666.317 257.951L667.973 260.16L666.317 262H647.178L606.323 191.516V237.892C606.323 242.799 606.691 246.725 607.427 249.67C608.286 252.492 609.697 255.252 611.66 257.951L613.316 260.16L611.66 262H591.416L590.128 258.687C593.318 257.829 595.526 257.031 596.753 256.295C598.103 255.559 599.023 254.516 599.514 253.166C600.004 251.817 600.25 249.67 600.25 246.725V198.141C600.25 192.743 599.759 188.817 598.777 186.363C597.796 183.909 595.649 181.271 592.336 178.449L593.809 176.057H617.733L658.772 247.093V191.332C658.772 187.651 657.974 185.075 656.379 183.602C654.907 182.13 651.779 180.719 646.994 179.37L648.098 176.057H669.998L671.654 178.081L669.998 180.106ZM682.371 258.687C685.438 257.829 687.647 257.031 688.996 256.295C690.346 255.436 691.266 254.332 691.757 252.982C692.248 251.633 692.493 249.547 692.493 246.725V196.853C692.493 192.559 692.125 189.43 691.389 187.467C690.775 185.504 689.242 183.786 686.788 182.314L684.58 181.026L685.316 178.633C689.364 177.407 694.395 176.425 700.406 175.689C706.418 174.83 711.939 174.401 716.969 174.401C732.551 174.401 744.39 178.265 752.487 185.995C760.707 193.601 764.817 204.643 764.817 219.121C764.817 232.248 761.014 242.677 753.408 250.406C745.924 258.135 735.679 262 722.674 262H683.659L682.371 258.687ZM721.018 258.319C737.581 258.319 745.862 245.253 745.862 219.121C745.862 207.097 743.47 197.466 738.685 190.227C734.023 182.866 727.827 179.186 720.098 179.186C716.908 179.186 714.454 179.676 712.736 180.658C711.019 181.639 710.16 183.05 710.16 184.891V241.204C710.16 246.971 711.019 251.265 712.736 254.087C714.577 256.908 717.337 258.319 721.018 258.319ZM773.673 258.687C776.494 257.951 778.519 257.215 779.746 256.479C781.095 255.62 781.954 254.516 782.322 253.166C782.813 251.694 783.058 249.547 783.058 246.725V198.877C783.058 192.988 782.567 188.878 781.586 186.547C780.727 184.093 778.519 181.394 774.961 178.449L776.617 176.057H807.719L809.007 179.002C805.449 181.087 803.179 183.05 802.198 184.891C801.216 186.608 800.725 189.737 800.725 194.276V239.548C800.725 245.314 801.155 249.424 802.014 251.878C802.995 254.209 805.203 256.847 808.639 259.792L807.166 262H774.961L773.673 258.687ZM890.34 245.437C891.567 248.872 892.917 251.633 894.389 253.719C895.861 255.682 898.131 257.829 901.198 260.16L899.542 262H866.232L865.128 258.687L867.888 257.951C869.729 257.338 871.017 256.602 871.753 255.743C872.612 254.761 873.041 253.473 873.041 251.878C873.041 250.897 872.366 248.382 871.017 244.333L867.336 233.475H838.811L837.339 238.076C835.499 243.597 834.579 247.768 834.579 250.59C834.579 253.289 835.069 255.743 836.051 257.951L837.339 260.16L835.683 262H815.439L814.151 258.687L816.911 257.951C819.856 257.092 822.064 255.927 823.537 254.455C825.009 252.86 826.42 250.099 827.769 246.173L846.541 192.068C847.399 189.001 847.829 186.854 847.829 185.627C847.829 182.928 845.866 181.026 841.94 179.922L839.915 179.37L841.204 176.057H866.232L890.34 245.437ZM865.496 228.322L852.982 190.964L840.652 228.322H865.496Z" fill="#007CC3"/>
</svg>
